<?xml version="1.0" encoding="UTF-8" standalone="no"?>
<!DOCTYPE svg PUBLIC "-//W3C//DTD SVG 1.1//EN"
 "http://www.w3.org/Graphics/SVG/1.1/DTD/svg11.dtd">
<!-- Generated by graphviz version 2.38.0 (20140413.2041)
 -->
<!-- Title: G Pages: 1 -->
<svg width="346pt" height="682pt"
 viewBox="0.00 0.00 346.00 682.00" xmlns="http://www.w3.org/2000/svg" xmlns:xlink="http://www.w3.org/1999/xlink">
<g id="graph0" class="graph" transform="scale(1 1) rotate(0) translate(4 678)">
<title>G</title>
<polygon fill="white" stroke="none" points="-4,4 -4,-678 342,-678 342,4 -4,4"/>
<g id="clust1" class="cluster"><title>cluster_Global</title>
<path fill="none" stroke="gray" d="M20,-8C20,-8 318,-8 318,-8 324,-8 330,-14 330,-20 330,-20 330,-654 330,-654 330,-660 324,-666 318,-666 318,-666 20,-666 20,-666 14,-666 8,-660 8,-654 8,-654 8,-20 8,-20 8,-14 14,-8 20,-8"/>
<text text-anchor="middle" x="169" y="-653.2" font-family="Times,serif" font-size="11.00" fill="gray">Global</text>
</g>
<g id="clust2" class="cluster"><title>cluster_\ElKuKu</title>
<path fill="none" stroke="gray" d="M28,-16C28,-16 310,-16 310,-16 316,-16 322,-22 322,-28 322,-28 322,-626 322,-626 322,-632 316,-638 310,-638 310,-638 28,-638 28,-638 22,-638 16,-632 16,-626 16,-626 16,-28 16,-28 16,-22 22,-16 28,-16"/>
<text text-anchor="middle" x="169" y="-625.2" font-family="Times,serif" font-size="11.00" fill="gray">ElKuKu</text>
</g>
<g id="clust3" class="cluster"><title>cluster_\ElKuKu\Crowdin</title>
<path fill="none" stroke="gray" d="M36,-24C36,-24 302,-24 302,-24 308,-24 314,-30 314,-36 314,-36 314,-598 314,-598 314,-604 308,-610 302,-610 302,-610 36,-610 36,-610 30,-610 24,-604 24,-598 24,-598 24,-36 24,-36 24,-30 30,-24 36,-24"/>
<text text-anchor="middle" x="169" y="-597.2" font-family="Times,serif" font-size="11.00" fill="gray">Crowdin</text>
</g>
<g id="clust4" class="cluster"><title>cluster_\ElKuKu\Crowdin\Package</title>
<path fill="none" stroke="gray" d="M205.5,-186C205.5,-186 288.5,-186 288.5,-186 294.5,-186 300.5,-192 300.5,-198 300.5,-198 300.5,-570 300.5,-570 300.5,-576 294.5,-582 288.5,-582 288.5,-582 205.5,-582 205.5,-582 199.5,-582 193.5,-576 193.5,-570 193.5,-570 193.5,-198 193.5,-198 193.5,-192 199.5,-186 205.5,-186"/>
<text text-anchor="middle" x="247" y="-569.2" font-family="Times,serif" font-size="11.00" fill="gray">Package</text>
</g>
<!-- \\ElKuKu\\Crowdin\\Package\\Project -->
<g id="node1" class="node"><title>\\ElKuKu\\Crowdin\\Package\\Project</title>
<polygon fill="none" stroke="black" points="279,-554 215,-554 215,-518 279,-518 279,-554"/>
<text text-anchor="middle" x="247" y="-533.2" font-family="Courier,monospace" font-size="11.00">Project</text>
</g>
<!-- \\ElKuKu\\Crowdin\\Package -->
<g id="node8" class="node"><title>\\ElKuKu\\Crowdin\\Package</title>
<polygon fill="none" stroke="black" points="116,-392 32,-392 32,-356 116,-356 116,-392"/>
<text text-anchor="start" x="40" y="-377.2" font-family="Courier,monospace" font-size="11.00">«abstract»</text>
<text text-anchor="start" x="50" y="-365.2" font-family="Courier,monospace" font-size="11.00">Package</text>
</g>
<!-- \\ElKuKu\\Crowdin\\Package\\Project&#45;&gt;\\ElKuKu\\Crowdin\\Package -->
<g id="edge1" class="edge"><title>\\ElKuKu\\Crowdin\\Package\\Project&#45;&gt;\\ElKuKu\\Crowdin\\Package</title>
<path fill="none" stroke="black" d="M214.767,-524.481C205.663,-520.346 196.017,-515.155 188,-509 147.794,-478.131 112.257,-430.601 92.2137,-400.952"/>
<polygon fill="none" stroke="black" points="94.9541,-398.752 86.5027,-392.362 89.1251,-402.628 94.9541,-398.752"/>
</g>
<!-- \\ElKuKu\\Crowdin\\Package\\File -->
<g id="node2" class="node"><title>\\ElKuKu\\Crowdin\\Package\\File</title>
<polygon fill="none" stroke="black" points="274,-500 220,-500 220,-464 274,-464 274,-500"/>
<text text-anchor="middle" x="247" y="-479.2" font-family="Courier,monospace" font-size="11.00">File</text>
</g>
<!-- \\ElKuKu\\Crowdin\\Package\\File&#45;&gt;\\ElKuKu\\Crowdin\\Package -->
<g id="edge2" class="edge"><title>\\ElKuKu\\Crowdin\\Package\\File&#45;&gt;\\ElKuKu\\Crowdin\\Package</title>
<path fill="none" stroke="black" d="M219.778,-471.042C209.636,-466.483 198.069,-460.884 188,-455 158.802,-437.939 127.718,-415.292 105.558,-398.283"/>
<polygon fill="none" stroke="black" points="107.574,-395.418 97.524,-392.064 103.289,-400.953 107.574,-395.418"/>
</g>
<!-- \\ElKuKu\\Crowdin\\Package\\Memory -->
<g id="node3" class="node"><title>\\ElKuKu\\Crowdin\\Package\\Memory</title>
<polygon fill="none" stroke="black" points="275.5,-446 218.5,-446 218.5,-410 275.5,-410 275.5,-446"/>
<text text-anchor="middle" x="247" y="-425.2" font-family="Courier,monospace" font-size="11.00">Memory</text>
</g>
<!-- \\ElKuKu\\Crowdin\\Package\\Memory&#45;&gt;\\ElKuKu\\Crowdin\\Package -->
<g id="edge3" class="edge"><title>\\ElKuKu\\Crowdin\\Package\\Memory&#45;&gt;\\ElKuKu\\Crowdin\\Package</title>
<path fill="none" stroke="black" d="M218.145,-419.204C193.21,-411.329 156.029,-399.588 125.811,-390.045"/>
<polygon fill="none" stroke="black" points="126.858,-386.706 116.268,-387.032 124.75,-393.381 126.858,-386.706"/>
</g>
<!-- \\ElKuKu\\Crowdin\\Package\\Directory -->
<g id="node4" class="node"><title>\\ElKuKu\\Crowdin\\Package\\Directory</title>
<polygon fill="none" stroke="black" points="285.5,-392 208.5,-392 208.5,-356 285.5,-356 285.5,-392"/>
<text text-anchor="middle" x="247" y="-371.2" font-family="Courier,monospace" font-size="11.00">Directory</text>
</g>
<!-- \\ElKuKu\\Crowdin\\Package\\Directory&#45;&gt;\\ElKuKu\\Crowdin\\Package -->
<g id="edge4" class="edge"><title>\\ElKuKu\\Crowdin\\Package\\Directory&#45;&gt;\\ElKuKu\\Crowdin\\Package</title>
<path fill="none" stroke="black" d="M208.473,-374C184.345,-374 152.68,-374 126.248,-374"/>
<polygon fill="none" stroke="black" points="126.028,-370.5 116.028,-374 126.028,-377.5 126.028,-370.5"/>
</g>
<!-- \\ElKuKu\\Crowdin\\Package\\Language -->
<g id="node5" class="node"><title>\\ElKuKu\\Crowdin\\Package\\Language</title>
<polygon fill="none" stroke="black" points="282.5,-338 211.5,-338 211.5,-302 282.5,-302 282.5,-338"/>
<text text-anchor="middle" x="247" y="-317.2" font-family="Courier,monospace" font-size="11.00">Language</text>
</g>
<!-- \\ElKuKu\\Crowdin\\Package\\Language&#45;&gt;\\ElKuKu\\Crowdin\\Package -->
<g id="edge5" class="edge"><title>\\ElKuKu\\Crowdin\\Package\\Language&#45;&gt;\\ElKuKu\\Crowdin\\Package</title>
<path fill="none" stroke="black" d="M211.396,-330.928C186.885,-338.668 153.6,-349.179 126.048,-357.88"/>
<polygon fill="none" stroke="black" points="124.665,-354.646 116.183,-360.995 126.773,-361.321 124.665,-354.646"/>
</g>
<!-- \\ElKuKu\\Crowdin\\Package\\Translation -->
<g id="node6" class="node"><title>\\ElKuKu\\Crowdin\\Package\\Translation</title>
<polygon fill="none" stroke="black" points="292.5,-284 201.5,-284 201.5,-248 292.5,-248 292.5,-284"/>
<text text-anchor="middle" x="247" y="-263.2" font-family="Courier,monospace" font-size="11.00">Translation</text>
</g>
<!-- \\ElKuKu\\Crowdin\\Package\\Translation&#45;&gt;\\ElKuKu\\Crowdin\\Package -->
<g id="edge6" class="edge"><title>\\ElKuKu\\Crowdin\\Package\\Translation&#45;&gt;\\ElKuKu\\Crowdin\\Package</title>
<path fill="none" stroke="black" d="M204.636,-284.097C198.96,-286.914 193.274,-289.918 188,-293 158.802,-310.061 127.718,-332.708 105.558,-349.717"/>
<polygon fill="none" stroke="black" points="103.289,-347.047 97.524,-355.936 107.574,-352.582 103.289,-347.047"/>
</g>
<!-- \\ElKuKu\\Crowdin\\Package\\Glossary -->
<g id="node7" class="node"><title>\\ElKuKu\\Crowdin\\Package\\Glossary</title>
<polygon fill="none" stroke="black" points="282.5,-230 211.5,-230 211.5,-194 282.5,-194 282.5,-230"/>
<text text-anchor="middle" x="247" y="-209.2" font-family="Courier,monospace" font-size="11.00">Glossary</text>
</g>
<!-- \\ElKuKu\\Crowdin\\Package\\Glossary&#45;&gt;\\ElKuKu\\Crowdin\\Package -->
<g id="edge7" class="edge"><title>\\ElKuKu\\Crowdin\\Package\\Glossary&#45;&gt;\\ElKuKu\\Crowdin\\Package</title>
<path fill="none" stroke="black" d="M211.446,-225.065C203.355,-228.923 195.048,-233.589 188,-239 147.794,-269.869 112.257,-317.399 92.2137,-347.048"/>
<polygon fill="none" stroke="black" points="89.1251,-345.372 86.5027,-355.638 94.9541,-349.248 89.1251,-345.372"/>
</g>
<!-- \\ElKuKu\\Crowdin\\Languagefile -->
<g id="node9" class="node"><title>\\ElKuKu\\Crowdin\\Languagefile</title>
<polygon fill="none" stroke="black" points="296,-176 198,-176 198,-140 296,-140 296,-176"/>
<text text-anchor="middle" x="247" y="-155.2" font-family="Courier,monospace" font-size="11.00">Languagefile</text>
</g>
<!-- \\ElKuKu\\Crowdin\\Crowdin -->
<g id="node10" class="node"><title>\\ElKuKu\\Crowdin\\Crowdin</title>
<polygon fill="none" stroke="black" points="279,-122 215,-122 215,-86 279,-86 279,-122"/>
<text text-anchor="middle" x="247" y="-101.2" font-family="Courier,monospace" font-size="11.00">Crowdin</text>
</g>
<!-- \\ElKuKu\\Crowdin\\Languageproject -->
<g id="node11" class="node"><title>\\ElKuKu\\Crowdin\\Languageproject</title>
<polygon fill="none" stroke="black" points="306,-68 188,-68 188,-32 306,-32 306,-68"/>
<text text-anchor="middle" x="247" y="-47.2" font-family="Courier,monospace" font-size="11.00">Languageproject</text>
</g>
</g>
</svg>
